<svg xmlns="http://www.w3.org/2000/svg" xmlns:xlink="http://www.w3.org/1999/xlink" width="128" height="128" viewBox="0 0 128 128">
  <defs>
    <clipPath id="clip-Svg">
      <rect width="128" height="128"/>
    </clipPath>
  </defs>
  <g id="Svg" clip-path="url(#clip-Svg)">
    <rect width="128" height="128" fill="#fff"/>
    <g id="wotnot-logo" transform="translate(6.606 17.898)">
      <g id="Group_5044" data-name="Group 5044" transform="translate(0 -0.06)" opacity="0.9">
        <g id="Group_5043" data-name="Group 5043" transform="translate(0 0)">
          <path id="Path_2492" data-name="Path 2492" d="M24.441,15.314a8.914,8.914,0,0,1,5.164,1.636L43.9,26.87,29.606,36.79a8.856,8.856,0,0,1-5.164,1.636A9.112,9.112,0,0,1,15.314,29.3V24.441a9.112,9.112,0,0,1,9.127-9.127M24.441,0h0A24.449,24.449,0,0,0,0,24.416v4.858a24.432,24.432,0,0,0,29.452,23.9,23.907,23.907,0,0,0,8.871-3.835l14.292-9.92L70.742,26.844,52.615,14.266,38.324,4.346A24.455,24.455,0,0,0,24.441,0Z" transform="translate(0 0)" fill="#2aabb2"/>
        </g>
      </g>
      <g id="Group_5046" data-name="Group 5046" transform="translate(43.821 38.37)" opacity="0.9">
        <g id="Group_5045" data-name="Group 5045">
          <path id="Path_2493" data-name="Path 2493" d="M217.675,188.737a8.914,8.914,0,0,1-5.164-1.636l-14.292-9.92,14.292-9.92a8.856,8.856,0,0,1,5.164-1.636,9.112,9.112,0,0,1,9.127,9.127v4.858a9.129,9.129,0,0,1-9.127,9.127m0,15.289h0a24.512,24.512,0,0,0,16.874-6.749,25.682,25.682,0,0,0,3.094-3.579,24.131,24.131,0,0,0,3.963-9,26.018,26.018,0,0,0,.511-5.088v-4.858a24.321,24.321,0,0,0-29.427-23.9,23.906,23.906,0,0,0-8.871,3.835l-14.292,9.92L171.4,177.181l18.126,12.579,14.292,9.92a23.938,23.938,0,0,0,13.857,4.346Z" transform="translate(-171.4 -150.314)" fill="#2c3a96"/>
        </g>
      </g>
      <g id="Group_5048" data-name="Group 5048" transform="translate(0 38.391)" opacity="0.8">
        <g id="Group_5047" data-name="Group 5047">
          <path id="Path_2494" data-name="Path 2494" d="M24.441,165.688a8.914,8.914,0,0,1,5.164,1.636l14.292,9.92-14.292,9.92a8.856,8.856,0,0,1-5.164,1.636,9.112,9.112,0,0,1-9.127-9.127v-4.858a9.129,9.129,0,0,1,9.127-9.127m0-15.289h0A24.421,24.421,0,0,0,0,174.815v4.858a24.432,24.432,0,0,0,29.452,23.9,23.906,23.906,0,0,0,8.871-3.835l14.292-9.92,18.126-12.579L52.615,164.665l-14.292-9.92A24.075,24.075,0,0,0,24.441,150.4Z" transform="translate(0 -150.399)" fill="#2c69a5"/>
        </g>
      </g>
      <g id="Group_5050" data-name="Group 5050" transform="translate(43.795 -0.081)" opacity="0.8">
        <g id="Group_5049" data-name="Group 5049" transform="translate(0 0)">
          <path id="Path_2495" data-name="Path 2495" d="M217.6,38.366a9.1,9.1,0,0,1-5.164-1.636l-14.292-9.92,14.292-9.92a8.856,8.856,0,0,1,5.164-1.636,9.112,9.112,0,0,1,9.127,9.127v4.858a9.146,9.146,0,0,1-9.127,9.127m0,15.289h0a24.421,24.421,0,0,0,24.467-24.416V24.381a24.387,24.387,0,0,0-38.349-20.07l-14.292,9.92L171.3,26.81l18.126,12.579,14.292,9.92A24.264,24.264,0,0,0,217.6,53.654Z" transform="translate(-171.3 0.081)" fill="#2c69a5"/>
        </g>
      </g>
    </g>
  </g>
</svg>
